<?xml version="1.0" standalone="no"?>
<!DOCTYPE svg PUBLIC "-//W3C//DTD SVG 20010904//EN"
 "http://www.w3.org/TR/2001/REC-SVG-20010904/DTD/svg10.dtd">
<svg version="1.0" xmlns="http://www.w3.org/2000/svg"
 width="900.000000pt" height="473.000000pt" viewBox="0 0 900.000000 473.000000"
 preserveAspectRatio="xMidYMid meet">

<g transform="translate(0.000000,473.000000) scale(0.100000,-0.100000)"
fill="#000000" stroke="none">
<path d="M3262 4377 c-27 -28 -159 -303 -201 -417 -68 -187 -97 -322 -121
-560 -13 -129 -2 -324 26 -466 l16 -82 -50 -63 c-78 -101 -149 -215 -209 -336
-31 -62 -60 -113 -65 -113 -18 0 -157 68 -202 99 -25 18 -87 71 -136 118 -151
143 -258 325 -338 573 -51 156 -71 269 -79 433 l-6 129 -38 24 c-152 96 -441
118 -769 60 -453 -81 -715 -188 -885 -360 -76 -77 -136 -173 -113 -180 7 -2
47 -14 88 -26 73 -22 250 -112 339 -173 61 -42 190 -166 241 -231 56 -74 125
-197 160 -288 48 -125 71 -247 80 -428 6 -129 13 -180 30 -232 13 -38 27 -68
31 -68 5 0 15 13 23 28 21 40 123 132 182 164 136 73 341 107 486 79 125 -25
251 -101 295 -179 l27 -48 85 34 c108 43 237 72 324 72 37 0 67 -1 67 -2 0 -2
-7 -25 -16 -53 -29 -94 -45 -240 -51 -465 -9 -349 12 -483 98 -626 184 -304
652 -535 1297 -640 468 -76 1052 -69 1501 17 648 124 1064 386 1156 729 33
122 44 678 16 858 -6 44 -5 52 8 52 41 -1 196 -42 272 -72 l85 -34 27 48 c30
53 82 95 172 138 167 79 422 63 609 -38 59 -32 161 -124 182 -164 8 -15 18
-28 23 -28 4 0 18 30 31 68 17 52 24 103 30 232 9 181 32 303 80 428 35 91
104 214 160 288 51 65 180 189 241 231 89 61 266 151 339 173 41 12 81 24 88
26 23 7 -37 103 -113 180 -169 172 -428 277 -885 360 -135 25 -179 28 -340 28
-203 -1 -281 -14 -396 -71 -62 -30 -68 -40 -78 -128 -13 -111 -55 -339 -81
-440 -30 -116 -105 -309 -142 -369 -102 -161 -274 -334 -394 -396 l-36 -19
-28 72 c-15 40 -50 117 -77 171 l-50 99 16 78 c31 154 39 267 33 493 -5 210
-16 315 -53 495 -55 271 -175 541 -241 541 -29 0 -32 -7 -77 -195 -40 -171
-87 -325 -141 -470 -42 -112 -130 -305 -140 -305 -3 0 -37 18 -75 39 -199 113
-436 194 -695 238 -88 14 -161 18 -365 17 -235 0 -266 -2 -395 -27 -151 -30
-245 -54 -368 -94 -43 -14 -82 -21 -86 -17 -15 17 -160 354 -210 487 -55 147
-115 353 -126 437 -4 30 -11 63 -17 73 -12 24 -50 21 -76 -6z m118 -460 c68
-197 278 -670 421 -949 55 -107 56 -128 11 -174 -15 -15 -58 -42 -97 -60 -192
-91 -427 -97 -571 -15 -48 28 -52 33 -67 93 -31 115 -47 209 -58 334 -27 298
48 662 201 981 l62 128 28 -110 c16 -60 47 -163 70 -228z m2754 -49 c40 -118
65 -229 93 -393 23 -141 25 -636 2 -723 l-14 -54 -64 94 c-71 102 -191 224
-318 325 -46 35 -83 67 -83 69 0 3 14 31 30 64 84 166 204 512 256 733 l18 78
23 -43 c12 -24 38 -91 57 -150z m2036 -565 c80 -13 214 -42 298 -64 84 -21
155 -39 159 -39 3 0 4 -2 1 -5 -3 -3 -36 2 -74 11 -85 20 -91 21 -148 29 -52
8 -57 8 -53 -2 1 -5 5 -7 9 -6 4 2 5 -7 3 -19 -5 -24 -14 -36 -16 -20 -2 12
-5 26 -9 40 -1 4 -2 10 -1 15 0 4 -1 7 -4 7 -6 0 -177 38 -210 47 -11 3 -55
11 -99 19 -84 14 -120 29 -46 19 25 -4 110 -18 190 -32z m59 -72 c-2 -6 -10 2
-17 17 -11 25 -11 25 4 10 9 -9 15 -21 13 -27z m-44 -5 c-1 -20 3 -34 9 -33 6
1 10 -5 8 -13 -2 -8 0 -11 5 -7 4 5 8 14 8 20 0 7 10 11 22 11 13 -1 20 3 17
7 -3 5 -10 6 -16 3 -6 -4 -6 0 1 13 6 11 7 24 3 29 -4 5 0 3 8 -3 8 -6 23 -9
33 -8 9 2 15 -1 12 -5 -3 -5 -1 -11 5 -15 5 -3 10 0 10 7 1 7 11 -5 22 -27 12
-22 21 -44 20 -48 -1 -5 3 -5 9 -1 8 5 10 2 6 -8 -3 -10 6 -26 23 -43 18 -17
27 -35 25 -47 -3 -12 -1 -17 3 -14 4 4 8 12 8 17 3 22 5 23 14 9 6 -9 5 -20
-3 -30 -11 -13 -10 -13 7 0 18 14 19 13 14 -2 -4 -10 -2 -15 7 -14 23 3 29 14
17 29 -7 8 -9 17 -5 20 3 4 1 7 -6 7 -8 0 -11 -6 -7 -16 3 -9 2 -12 -5 -9 -6
4 -8 12 -6 19 3 6 -2 21 -10 31 -12 16 -14 17 -11 3 2 -9 -1 -16 -7 -15 -5 1
-9 4 -8 7 13 38 13 43 0 21 -8 -14 -17 -19 -21 -13 -3 6 -2 13 4 17 7 4 7 13
0 26 -6 11 -15 17 -20 14 -5 -3 -11 -1 -15 5 -3 6 1 13 9 16 9 3 14 10 11 14
-3 5 -1 11 4 15 6 3 8 -6 5 -21 -4 -23 -3 -25 9 -16 11 9 18 7 33 -10 12 -14
13 -18 3 -10 -16 12 -29 7 -29 -10 0 -5 4 -7 10 -3 5 3 16 -7 25 -22 12 -21
15 -23 12 -7 -3 12 1 21 8 21 10 0 11 -7 4 -24 -8 -22 -3 -28 22 -25 4 1 6 -8
5 -20 0 -12 5 -23 13 -26 9 -3 11 0 6 9 -5 8 -5 11 -1 7 4 -3 31 4 59 17 100
43 101 36 2 -14 -213 -109 -376 -263 -497 -470 -21 -36 -38 -63 -38 -60 0 17
23 69 31 69 5 0 9 9 9 19 0 11 7 27 16 35 14 15 11 20 -9 17 -5 -1 -6 3 -3 8
3 5 -1 14 -9 21 -8 7 -20 30 -26 52 -9 34 -8 43 8 61 16 19 16 20 1 8 -19 -14
-25 -2 -8 15 6 6 5 15 -1 24 -10 13 -10 13 -6 0 3 -9 -1 -24 -8 -34 -9 -12
-11 -27 -4 -49 5 -17 7 -33 4 -35 -3 -3 1 -12 8 -21 10 -14 10 -14 -5 -3 -10
8 -14 20 -11 29 4 10 2 14 -5 9 -6 -3 -14 -1 -18 5 -4 8 -3 9 4 5 8 -5 12 1
12 15 0 17 -3 19 -14 10 -12 -10 -13 -5 -9 26 5 37 4 37 -12 18 -15 -19 -16
-19 -7 -1 8 15 5 24 -12 38 -11 10 -16 18 -11 17 21 -3 35 1 35 10 0 6 -10 8
-21 6 -12 -3 -19 -2 -15 2 3 3 0 13 -6 22 -8 10 -4 9 10 -3 12 -11 22 -14 22
-8 0 6 -4 13 -10 17 -14 9 0 116 19 139 7 9 7 17 -2 26 -6 8 -2 6 11 -4 25
-22 30 -11 6 15 -15 17 -15 18 3 14 14 -2 25 5 34 21 13 26 32 14 22 -13 -5
-12 -7 -12 -15 -1 -6 9 -7 5 -3 -12 4 -17 3 -21 -3 -11 -7 9 -12 10 -16 2 -4
-6 -2 -11 5 -11 9 0 9 -3 0 -14 -9 -11 -9 -20 -2 -35 6 -11 7 -22 2 -25 -5 -3
-7 -19 -6 -36 1 -16 -3 -34 -10 -40 -10 -8 -12 -2 -11 29 1 22 5 43 9 47 4 4
7 14 7 22 0 18 -15 6 -15 -11 -1 -7 -6 -11 -12 -10 -8 2 -10 -15 -7 -55 3 -31
6 -69 7 -84 1 -15 5 -24 9 -22 5 3 8 2 7 -3 -3 -16 1 -56 5 -52 12 12 12 67 0
84 -24 33 -15 41 12 10 l26 -30 -21 31 c-17 26 -18 34 -7 43 7 6 12 25 11 41
-1 17 1 33 6 36 5 3 5 13 -1 24 -15 28 -12 35 8 17 15 -14 19 -14 19 -3 0 8
-3 14 -6 13 -3 -1 -6 3 -6 8 0 6 3 9 7 8 4 -2 4 5 1 15 -6 15 -5 16 12 2 10
-8 16 -10 12 -3 -4 6 -3 15 3 18 6 4 8 16 5 28 -6 21 -5 21 8 4 13 -16 15 -16
21 -1 3 9 4 20 0 25 -3 5 -1 9 5 9 5 0 11 -6 14 -12 3 -7 4 -3 4 9 -1 17 -5
20 -19 12 -11 -6 -15 -15 -11 -27 6 -15 4 -15 -9 -4 -14 11 -18 10 -26 -4 -8
-15 -10 -14 -14 4 -4 15 -2 19 8 15 9 -3 13 0 11 8 -2 8 -2 11 0 7 7 -13 23
-9 21 5 -2 6 5 11 14 9 10 -2 16 3 14 10 -1 7 -1 9 2 4 2 -4 8 -3 12 4 5 8 9
7 13 -5 4 -9 3 -14 -2 -11 -5 4 -7 -3 -4 -14 7 -27 14 -19 18 22 4 38 4 38 9
38 1 0 2 -15 1 -34z m28 -1 c4 -8 2 -17 -3 -20 -6 -4 -10 3 -10 14 0 25 6 27
13 6z m-7300 -63 c-6 -15 -5 -15 10 -3 9 7 15 17 12 20 -2 4 2 8 8 8 7 0 13
-12 14 -26 0 -15 -1 -18 -4 -8 -2 9 -9 15 -14 11 -12 -7 28 -64 44 -64 7 0 6
4 -3 10 -8 5 -12 10 -7 10 4 0 9 -1 10 -2 2 -2 11 3 20 11 17 14 23 3 10 -15
-5 -5 0 -1 10 9 9 11 17 24 17 31 0 6 -5 4 -10 -4 -5 -8 -10 -10 -10 -5 0 6 5
17 10 25 8 12 10 12 10 1 0 -11 3 -11 18 0 14 11 15 11 5 -1 -21 -24 -14 -34
9 -14 12 10 18 14 15 7 -4 -6 -3 -14 3 -18 5 -3 10 0 10 7 1 7 6 3 13 -10 7
-12 16 -20 20 -16 4 4 1 14 -6 23 -11 14 -10 14 6 2 13 -10 15 -17 6 -27 -13
-15 -9 -17 15 -8 9 3 13 11 9 17 -3 6 -1 7 6 3 6 -4 9 -11 6 -16 -3 -5 -1 -11
5 -15 7 -4 7 -12 0 -26 -13 -23 5 -64 22 -53 7 5 9 2 5 -9 -6 -16 15 -41 26
-30 4 3 7 16 6 27 -1 18 -2 18 -8 -4 -4 -14 -9 -20 -13 -15 -3 6 1 24 8 40 9
20 13 24 14 12 0 -10 4 -15 10 -12 5 3 8 0 6 -7 -3 -7 -7 -26 -10 -41 -4 -18
-11 -25 -19 -21 -7 4 -4 -2 6 -13 9 -11 14 -23 10 -28 -5 -4 -3 -5 4 -1 7 4
17 -2 22 -13 14 -25 14 -34 1 -26 -18 11 -30 -5 -20 -29 5 -15 5 -27 -2 -34
-6 -6 -6 -12 1 -17 7 -4 10 -1 9 7 -2 7 2 12 8 11 7 -1 20 7 30 18 13 15 14
20 4 17 -9 -2 -15 6 -16 22 -3 33 -8 52 -17 68 -5 7 -4 12 2 12 6 0 11 5 11
11 0 8 -5 8 -15 -1 -10 -9 -15 -9 -15 -1 0 6 4 11 9 11 5 0 7 10 4 23 -4 18
-2 17 11 -6 8 -15 12 -35 9 -45 -6 -15 -5 -16 12 -2 17 13 18 13 10 0 -5 -8
-11 -23 -12 -34 -3 -16 -1 -17 14 -5 16 13 16 13 0 -11 -21 -30 -21 -37 -2
-37 9 0 14 6 11 13 -3 7 0 11 7 9 7 -3 32 14 57 36 95 85 96 76 1 -18 -138
-138 -233 -287 -301 -473 l-28 -75 -11 45 c-76 298 -235 528 -501 723 -41 30
1 6 63 -35 31 -22 61 -36 66 -33 6 3 13 0 17 -6 4 -8 3 -9 -4 -5 -7 4 -12 2
-12 -4 0 -7 7 -9 15 -6 9 3 18 -1 22 -10 4 -12 8 -13 13 -3 5 7 6 19 3 26 -4
9 -8 11 -12 4 -4 -6 -12 -1 -20 12 -13 20 -13 21 2 8 14 -11 18 -11 23 4 6 13
9 14 16 3 7 -9 8 -6 4 11 -3 17 -2 21 6 13 14 -14 2 -46 -14 -36 -7 4 -2 -7
11 -24 12 -18 25 -32 29 -32 3 0 1 5 -6 12 -14 14 -16 32 -3 24 12 -8 2 55
-12 74 -9 12 -8 13 2 3 7 -6 19 -9 26 -7 10 4 25 -25 29 -58 1 -3 4 -9 9 -12
4 -3 5 -3 2 1 -3 3 1 13 8 21 9 13 9 14 0 8 -13 -7 -18 6 -6 17 10 10 34 -14
26 -27 -3 -6 5 -1 19 12 13 12 28 19 33 15 4 -5 4 -1 -1 7 -5 8 -7 23 -5 34 1
10 -2 15 -7 12 -6 -3 -9 -14 -7 -24 3 -21 -14 -44 -27 -36 -6 4 -6 9 2 14 8 5
7 9 -5 13 -10 5 -14 3 -9 -5 4 -7 3 -8 -5 -4 -9 6 -9 11 -1 21 7 8 7 16 2 19
-11 7 -25 -21 -17 -34 3 -5 1 -11 -5 -15 -5 -3 -10 3 -10 14 0 10 -3 21 -7 24
-5 2 -2 2 5 1 11 -3 17 9 12 31 -1 5 9 1 21 -10 22 -20 22 -20 16 0 -7 18 -6
19 6 3 8 -10 17 -15 20 -11 4 3 2 11 -3 18 -7 8 -5 12 5 12 8 0 12 -4 9 -8 -2
-4 0 -10 6 -14 9 -6 14 8 11 28 -1 5 3 6 8 2 6 -3 7 -13 4 -23z m71 6 c-4 -6
-1 -8 7 -6 8 3 13 11 11 17 -1 7 2 10 8 6 6 -3 7 -12 3 -18 -4 -7 -8 -15 -8
-19 0 -13 -15 -21 -15 -8 0 9 -5 7 -15 -6 -8 -10 -15 -14 -15 -7 0 6 4 14 9
18 6 3 8 14 6 25 -2 12 0 18 6 15 5 -4 6 -11 3 -17z m7683 16 c-3 -3 -12 -4
-19 -1 -8 3 -5 6 6 6 11 1 17 -2 13 -5z m-633 -13 c3 -5 -2 -15 -12 -22 -15
-12 -16 -12 -5 2 7 9 10 19 6 22 -3 4 -4 7 0 7 3 0 8 -4 11 -9z m360 -43 c-9
-14 -23 2 -17 18 4 12 8 13 14 3 4 -7 5 -17 3 -21z m-312 0 c-7 -7 -12 -8 -12
-2 0 14 12 26 19 19 2 -3 -1 -11 -7 -17z m705 16 c-3 -3 -12 -4 -19 -1 -8 3
-5 6 6 6 11 1 17 -2 13 -5z m-7570 -49 c0 -8 -4 -12 -9 -9 -5 3 -6 10 -3 15 9
13 12 11 12 -6z m3 -32 c0 -3 -8 -2 -17 1 -17 6 -17 5 0 -8 21 -16 22 -23 2
-23 -16 0 -28 24 -20 37 6 9 35 3 35 -7z m41 -120 c13 -16 12 -17 -3 -4 -10 7
-18 15 -18 17 0 8 8 3 21 -13z m16 -83 c7 -11 9 -21 3 -25 -9 -6 -13 -1 -23
28 -9 23 5 22 20 -3z m143 -424 c0 -2 -8 -10 -17 -17 -16 -13 -17 -12 -4 4 13
16 21 21 21 13z m-30 -40 c0 -2 -8 -10 -17 -17 -16 -13 -17 -12 -4 4 13 16 21
21 21 13z m392 -251 c78 -16 185 -64 213 -96 13 -13 2 -9 -30 13 -130 87 -356
112 -555 61 -14 -3 -22 -3 -19 1 14 15 140 34 229 35 52 0 125 -6 162 -14z
m258 -86 c0 -27 -3 -48 -8 -45 -7 4 -4 96 4 96 2 0 4 -23 4 -51z m5521 -53
c85 -21 209 -69 209 -79 0 -2 -37 11 -82 29 -126 50 -231 68 -362 61 -61 -3
-122 -9 -136 -13 -14 -4 -22 -4 -19 0 12 13 96 24 195 25 77 1 124 -5 195 -23z
m-5336 -36 c3 -5 -1 -10 -10 -10 -9 0 -13 5 -10 10 3 6 8 10 10 10 2 0 7 -4
10 -10z m4785 -44 c0 -2 -8 -10 -17 -17 -16 -13 -17 -12 -4 4 13 16 21 21 21
13z m810 -32 c0 -2 -9 0 -20 6 -11 6 -20 13 -20 16 0 2 9 0 20 -6 11 -6 20
-13 20 -16z m-850 2 c0 -3 -4 -8 -10 -11 -5 -3 -10 -1 -10 4 0 6 5 11 10 11 6
0 10 -2 10 -4z m-183 -62 c-3 -3 -12 -4 -19 -1 -8 3 -5 6 6 6 11 1 17 -2 13
-5z m-900 -189 c38 -27 58 -99 58 -210 -1 -110 -23 -183 -64 -205 -111 -59
-167 295 -65 405 27 29 41 31 71 10z m-1580 -100 c38 -27 58 -99 58 -210 -1
-110 -23 -183 -64 -205 -111 -59 -167 295 -65 405 27 29 41 31 71 10z"/>
<path d="M8250 3229 c0 -5 4 -9 9 -9 14 0 20 -37 7 -51 -9 -11 -8 -11 5 -1 11
8 15 21 12 35 -5 22 -5 22 10 2 12 -15 13 -23 4 -35 -6 -8 -2 -7 10 3 13 12
19 25 15 35 -4 11 -7 12 -10 3 -3 -8 -8 -7 -17 5 -13 19 -45 28 -45 13z"/>
<path d="M8236 3178 c3 -5 10 -6 15 -3 13 9 11 12 -6 12 -8 0 -12 -4 -9 -9z"/>
<path d="M8319 3163 c-13 -16 -12 -17 4 -4 9 7 17 15 17 17 0 8 -8 3 -21 -13z"/>
<path d="M7991 3061 c-8 -15 -8 -22 1 -27 7 -4 10 -4 6 1 -4 4 -3 14 4 22 6 7
8 16 5 19 -3 3 -10 -3 -16 -15z"/>
<path d="M8068 2804 c-19 -20 -9 -78 20 -106 17 -17 20 -18 32 -3 11 13 11 16
0 13 -7 -2 -15 3 -18 11 -3 10 0 12 14 7 10 -4 15 -4 11 0 -4 4 -1 14 6 22 9
11 4 11 -15 -2 -22 -14 -28 -15 -28 -5 0 12 -2 12 -9 0 -6 -9 -10 -4 -13 18
-3 19 1 36 11 46 8 8 13 15 10 15 -2 0 -12 -7 -21 -16z m32 -99 c14 -19 14
-19 -2 -6 -10 7 -18 18 -18 24 0 6 1 8 3 6 1 -2 9 -13 17 -24z"/>
<path d="M8080 2784 c0 -20 27 -37 36 -23 4 7 3 9 -4 5 -6 -3 -15 2 -21 11 -6
10 -11 13 -11 7z"/>
<path d="M903 3129 c-1 -10 3 -21 8 -25 6 -3 5 -12 -3 -22 -12 -15 -11 -16 5
-3 12 10 15 17 7 25 -23 23 -8 28 17 5 28 -24 28 -24 8 0 -11 13 -18 26 -15
29 3 3 -2 6 -10 7 -9 2 -17 -5 -17 -16z"/>
<path d="M1066 3142 c-4 -7 -2 -20 3 -29 6 -11 11 -13 11 -5 0 7 5 10 10 7 8
-5 7 -12 -2 -23 -9 -12 -6 -11 10 2 22 19 32 10 11 -11 -8 -8 -8 -13 0 -18 6
-3 10 -3 9 2 -2 4 2 9 7 10 6 0 9 -2 8 -6 -1 -4 4 -8 12 -8 8 0 12 4 10 8 -3
4 3 10 12 13 12 5 14 9 5 18 -9 9 -15 9 -24 0 -9 -9 -16 -6 -30 16 -10 15 -18
21 -18 13 0 -11 -4 -10 -13 4 -10 12 -16 14 -21 7z m104 -46 c0 -2 -7 -7 -16
-10 -8 -3 -12 -2 -9 4 6 10 25 14 25 6z"/>
<path d="M845 3130 c-3 -5 -1 -10 4 -10 6 0 11 5 11 10 0 6 -2 10 -4 10 -3 0
-8 -4 -11 -10z"/>
<path d="M1033 3114 c-10 -21 -9 -23 1 -15 7 6 15 8 19 5 3 -3 3 3 0 15 -7 26
-6 26 -20 -5z"/>
<path d="M770 3096 c0 -8 4 -17 9 -20 5 -4 7 3 4 14 -6 23 -13 26 -13 6z"/>
<path d="M783 3041 c0 -11 5 -18 9 -15 4 3 5 11 1 19 -7 21 -12 19 -10 -4z"/>
<path d="M1215 2931 c-3 -5 -2 -12 3 -15 5 -3 9 1 9 9 0 17 -3 19 -12 6z"/>
<path d="M1229 2893 c-13 -17 -13 -17 6 -3 11 8 22 16 24 17 2 2 0 3 -6 3 -6
0 -17 -8 -24 -17z"/>
<path d="M1223 2797 c0 -8 6 -14 14 -14 9 0 10 4 2 14 -6 7 -12 13 -14 13 -1
0 -2 -6 -2 -13z"/>
<path d="M1145 2681 c1 -9 -2 -24 -7 -34 -8 -15 -12 -16 -24 -6 -8 7 -14 8
-12 3 2 -5 -1 -10 -7 -10 -5 -1 -9 1 -8 5 1 4 -5 8 -13 8 -12 0 -12 -3 1 -17
8 -9 15 -23 15 -31 0 -8 -6 -4 -16 9 -11 17 -19 20 -28 13 -7 -6 -16 -9 -19
-6 -4 3 -5 2 -2 -1 2 -4 -1 -16 -7 -28 -6 -11 -7 -18 -3 -14 4 4 14 0 22 -10
14 -16 14 -16 9 0 -3 10 -2 17 2 17 4 -1 9 0 12 1 19 7 41 7 46 -1 3 -5 0 -8
-7 -7 -6 2 -14 -3 -17 -11 -3 -9 0 -11 8 -6 9 6 11 4 5 -5 -6 -10 -11 -10 -20
4 -11 15 -13 15 -19 1 -3 -9 -10 -14 -15 -11 -17 11 -18 -31 -3 -94 l15 -63
30 89 c16 49 35 96 43 105 9 9 12 24 8 34 -6 14 -4 16 6 10 8 -5 11 -4 6 3 -3
6 1 18 10 26 10 10 11 16 3 16 -8 0 -9 3 0 13 8 10 7 14 -3 14 -8 0 -13 -7
-11 -16z m-23 -93 c-13 -13 -26 8 -17 30 6 16 7 16 17 -1 7 -13 7 -22 0 -29z
m-55 9 c-4 -12 -37 -19 -37 -8 0 4 5 12 12 19 13 13 31 6 25 -11z"/>
<path d="M1010 2545 c0 -8 2 -15 4 -15 2 0 6 7 10 15 3 8 1 15 -4 15 -6 0 -10
-7 -10 -15z"/>
</g>
</svg>
