<?xml version="1.0" standalone="no"?>
<!DOCTYPE svg PUBLIC "-//W3C//DTD SVG 20010904//EN"
 "http://www.w3.org/TR/2001/REC-SVG-20010904/DTD/svg10.dtd">
<svg version="1.0" xmlns="http://www.w3.org/2000/svg"
 width="1191.000000pt" height="670.000000pt" viewBox="0 0 1191.000000 670.000000"
 preserveAspectRatio="xMidYMid meet">

<g transform="translate(0.000000,670.000000) scale(0.100000,-0.100000)"
fill="#000000" stroke="none">
<path d="M3873 5947 c3 -19 23 -72 46 -119 46 -99 117 -182 222 -259 111 -83
260 -281 289 -385 11 -37 11 -64 2 -134 -31 -227 2 -374 119 -532 28 -37 76
-91 107 -118 52 -46 60 -50 107 -50 138 0 126 87 -40 285 -41 50 -85 110 -97
134 -24 50 -30 131 -12 178 7 17 10 33 8 36 -10 9 124 135 172 162 l51 28 -37
106 c-40 115 -80 213 -90 221 -3 3 -17 23 -30 45 -13 22 -34 52 -47 66 -38 42
-187 106 -298 130 -107 23 -220 64 -294 107 -25 14 -48 29 -51 32 -3 3 -29 23
-57 44 -29 21 -53 42 -53 47 0 5 -5 9 -11 9 -8 0 -10 -12 -6 -33z"/>
<path d="M7864 5926 c-29 -23 -62 -49 -75 -60 -50 -39 -188 -96 -294 -122
-191 -46 -210 -53 -288 -105 -86 -56 -119 -97 -166 -209 -34 -80 -91 -242 -91
-259 0 -6 17 -19 38 -30 55 -28 109 -74 148 -126 43 -56 48 -72 48 -155 0 -82
-21 -124 -110 -222 -77 -86 -144 -195 -144 -235 0 -46 14 -56 78 -61 66 -5 72
-2 155 82 159 160 218 318 202 536 -15 190 -13 209 23 282 56 115 146 218 312
361 95 82 127 123 170 215 28 60 55 141 48 147 -2 1 -26 -16 -54 -39z"/>
<path d="M5792 5393 c-136 -165 -325 -342 -482 -449 l-70 -48 19 -20 c42 -45
101 -197 143 -370 12 -47 14 -49 87 -85 109 -52 263 -198 347 -328 19 -29 38
-53 44 -53 5 0 31 33 58 73 95 139 252 277 387 338 24 12 33 25 48 79 40 141
81 258 109 313 28 56 28 60 12 78 -9 10 -21 19 -26 19 -14 0 -113 75 -213 161
-107 91 -217 205 -304 312 -34 42 -66 77 -71 77 -4 0 -44 -44 -88 -97z m109
-195 c7 -12 15 -54 19 -93 4 -38 17 -92 30 -119 16 -37 21 -61 17 -93 -4 -38
-2 -43 12 -38 91 38 145 31 195 -26 31 -33 36 -46 36 -87 0 -50 -21 -92 -46
-92 -9 0 -14 11 -14 34 0 45 -34 84 -79 91 -45 8 -125 -20 -145 -50 -21 -32
-20 -51 5 -92 26 -42 21 -94 -12 -129 -23 -25 -59 -32 -59 -13 0 6 -9 22 -20
36 -25 32 -26 73 -1 114 28 46 16 79 -39 106 -25 11 -64 24 -88 27 -37 5 -46
3 -67 -19 -14 -13 -28 -38 -31 -55 -9 -41 -24 -48 -46 -20 -37 45 -7 140 57
180 43 27 112 29 150 4 27 -17 28 -16 25 31 0 17 10 55 23 85 15 35 26 83 30
133 5 66 17 107 33 107 2 0 9 -10 15 -22z"/>
</g>
</svg>
